<mxfile host="app.diagrams.net" modified="2022-09-27T17:03:49.033Z" agent="5.0 (Macintosh; Intel Mac OS X 10_15_7) AppleWebKit/605.1.15 (KHTML, like Gecko) Version/16.0 Safari/605.1.15" etag="zi77--rtqbg0NVIkGTEc" version="20.3.7" type="github">
  <diagram id="uB3vWUOr1kCDj90bt4IU" name="Page-1">
    <mxGraphModel dx="931" dy="620" grid="1" gridSize="10" guides="1" tooltips="1" connect="1" arrows="1" fold="1" page="1" pageScale="1" pageWidth="827" pageHeight="1169" math="0" shadow="0">
      <root>
        <mxCell id="0" />
        <mxCell id="1" parent="0" />
        <mxCell id="a8mu2WrpENQF8_EIgTLG-4" value="Application" style="shape=umlLifeline;participant=umlBoundary;perimeter=lifelinePerimeter;whiteSpace=wrap;html=1;container=1;collapsible=0;recursiveResize=0;verticalAlign=top;spacingTop=36;outlineConnect=0;" vertex="1" parent="1">
          <mxGeometry x="50" y="40" width="50" height="550" as="geometry" />
        </mxCell>
        <mxCell id="a8mu2WrpENQF8_EIgTLG-14" value="" style="html=1;points=[];perimeter=orthogonalPerimeter;fontSize=9;" vertex="1" parent="a8mu2WrpENQF8_EIgTLG-4">
          <mxGeometry x="20" y="90" width="10" height="430" as="geometry" />
        </mxCell>
        <mxCell id="a8mu2WrpENQF8_EIgTLG-31" value="" style="html=1;points=[];perimeter=orthogonalPerimeter;fontSize=9;" vertex="1" parent="a8mu2WrpENQF8_EIgTLG-4">
          <mxGeometry x="25" y="180" width="10" height="190" as="geometry" />
        </mxCell>
        <mxCell id="a8mu2WrpENQF8_EIgTLG-32" value="generate JWT" style="edgeStyle=orthogonalEdgeStyle;html=1;align=left;spacingLeft=2;endArrow=block;rounded=0;entryX=1;entryY=0;fontSize=9;" edge="1" target="a8mu2WrpENQF8_EIgTLG-31" parent="a8mu2WrpENQF8_EIgTLG-4">
          <mxGeometry relative="1" as="geometry">
            <mxPoint x="30" y="160" as="sourcePoint" />
            <Array as="points">
              <mxPoint x="60" y="160" />
            </Array>
          </mxGeometry>
        </mxCell>
        <mxCell id="a8mu2WrpENQF8_EIgTLG-33" value="" style="html=1;points=[];perimeter=orthogonalPerimeter;fontSize=9;" vertex="1" parent="a8mu2WrpENQF8_EIgTLG-4">
          <mxGeometry x="30" y="240" width="10" height="80" as="geometry" />
        </mxCell>
        <mxCell id="a8mu2WrpENQF8_EIgTLG-37" value="" style="html=1;points=[];perimeter=orthogonalPerimeter;fontSize=9;" vertex="1" parent="a8mu2WrpENQF8_EIgTLG-4">
          <mxGeometry x="25" y="390" width="10" height="110" as="geometry" />
        </mxCell>
        <mxCell id="a8mu2WrpENQF8_EIgTLG-8" value="Authz Service" style="shape=umlLifeline;participant=umlControl;perimeter=lifelinePerimeter;whiteSpace=wrap;html=1;container=1;collapsible=0;recursiveResize=0;verticalAlign=top;spacingTop=36;outlineConnect=0;" vertex="1" parent="1">
          <mxGeometry x="180" y="40" width="40" height="550" as="geometry" />
        </mxCell>
        <mxCell id="a8mu2WrpENQF8_EIgTLG-18" value="" style="html=1;points=[];perimeter=orthogonalPerimeter;fontSize=9;" vertex="1" parent="a8mu2WrpENQF8_EIgTLG-8">
          <mxGeometry x="15" y="190" width="10" height="190" as="geometry" />
        </mxCell>
        <mxCell id="a8mu2WrpENQF8_EIgTLG-26" value="" style="html=1;points=[];perimeter=orthogonalPerimeter;fontSize=9;" vertex="1" parent="a8mu2WrpENQF8_EIgTLG-8">
          <mxGeometry x="20" y="230" width="10" height="40" as="geometry" />
        </mxCell>
        <mxCell id="a8mu2WrpENQF8_EIgTLG-27" value="validate" style="edgeStyle=orthogonalEdgeStyle;html=1;align=left;spacingLeft=2;endArrow=block;rounded=0;entryX=1;entryY=0;fontSize=9;" edge="1" target="a8mu2WrpENQF8_EIgTLG-26" parent="a8mu2WrpENQF8_EIgTLG-8">
          <mxGeometry relative="1" as="geometry">
            <mxPoint x="25" y="210" as="sourcePoint" />
            <Array as="points">
              <mxPoint x="55" y="210" />
            </Array>
          </mxGeometry>
        </mxCell>
        <mxCell id="a8mu2WrpENQF8_EIgTLG-29" value="" style="html=1;points=[];perimeter=orthogonalPerimeter;fontSize=9;" vertex="1" parent="a8mu2WrpENQF8_EIgTLG-8">
          <mxGeometry x="20" y="300" width="10" height="40" as="geometry" />
        </mxCell>
        <mxCell id="a8mu2WrpENQF8_EIgTLG-30" value="generate access_token (JWT)" style="edgeStyle=orthogonalEdgeStyle;html=1;align=left;spacingLeft=2;endArrow=block;rounded=0;entryX=1;entryY=0;fontSize=9;" edge="1" target="a8mu2WrpENQF8_EIgTLG-29" parent="a8mu2WrpENQF8_EIgTLG-8">
          <mxGeometry relative="1" as="geometry">
            <mxPoint x="25" y="280" as="sourcePoint" />
            <Array as="points">
              <mxPoint x="55" y="280" />
            </Array>
          </mxGeometry>
        </mxCell>
        <mxCell id="a8mu2WrpENQF8_EIgTLG-42" value="" style="html=1;points=[];perimeter=orthogonalPerimeter;fontSize=9;" vertex="1" parent="a8mu2WrpENQF8_EIgTLG-8">
          <mxGeometry x="15" y="430" width="10" height="40" as="geometry" />
        </mxCell>
        <mxCell id="a8mu2WrpENQF8_EIgTLG-12" value="FHIR Service" style="shape=umlLifeline;participant=umlEntity;perimeter=lifelinePerimeter;whiteSpace=wrap;html=1;container=1;collapsible=0;recursiveResize=0;verticalAlign=top;spacingTop=36;outlineConnect=0;" vertex="1" parent="1">
          <mxGeometry x="300" y="40" width="40" height="550" as="geometry" />
        </mxCell>
        <mxCell id="a8mu2WrpENQF8_EIgTLG-15" value="" style="html=1;points=[];perimeter=orthogonalPerimeter;fontSize=9;" vertex="1" parent="a8mu2WrpENQF8_EIgTLG-12">
          <mxGeometry x="15" y="100" width="10" height="40" as="geometry" />
        </mxCell>
        <mxCell id="a8mu2WrpENQF8_EIgTLG-38" value="" style="html=1;points=[];perimeter=orthogonalPerimeter;fontSize=9;" vertex="1" parent="a8mu2WrpENQF8_EIgTLG-12">
          <mxGeometry x="15" y="390" width="10" height="110" as="geometry" />
        </mxCell>
        <mxCell id="a8mu2WrpENQF8_EIgTLG-40" value="" style="html=1;points=[];perimeter=orthogonalPerimeter;fontSize=9;" vertex="1" parent="a8mu2WrpENQF8_EIgTLG-12">
          <mxGeometry x="20" y="430" width="10" height="40" as="geometry" />
        </mxCell>
        <mxCell id="a8mu2WrpENQF8_EIgTLG-41" value="validate" style="edgeStyle=orthogonalEdgeStyle;html=1;align=left;spacingLeft=2;endArrow=block;rounded=0;entryX=1;entryY=0;fontSize=9;" edge="1" target="a8mu2WrpENQF8_EIgTLG-40" parent="a8mu2WrpENQF8_EIgTLG-12">
          <mxGeometry relative="1" as="geometry">
            <mxPoint x="25" y="410" as="sourcePoint" />
            <Array as="points">
              <mxPoint x="55" y="410" />
            </Array>
          </mxGeometry>
        </mxCell>
        <mxCell id="a8mu2WrpENQF8_EIgTLG-16" value="&lt;span style=&quot;text-align: start;&quot; id=&quot;docs-internal-guid-a28b069d-7fff-43a8-c809-6137400d5dd9&quot;&gt;&lt;span style=&quot;font-family: Roboto, sans-serif; font-variant-ligatures: normal; font-variant-east-asian: normal; font-variant-position: normal; vertical-align: baseline;&quot;&gt;&lt;font style=&quot;font-size: 9px;&quot;&gt;/conformance&lt;/font&gt;&lt;/span&gt;&lt;/span&gt;" style="html=1;verticalAlign=bottom;endArrow=block;entryX=-0.2;entryY=0.225;rounded=0;fontSize=9;entryDx=0;entryDy=0;entryPerimeter=0;" edge="1" parent="1" target="a8mu2WrpENQF8_EIgTLG-15">
          <mxGeometry relative="1" as="geometry">
            <mxPoint x="81" y="150" as="sourcePoint" />
            <mxPoint x="495" y="210" as="targetPoint" />
          </mxGeometry>
        </mxCell>
        <mxCell id="a8mu2WrpENQF8_EIgTLG-17" value="conformance statement (/token)" style="html=1;verticalAlign=bottom;endArrow=open;dashed=1;endSize=8;rounded=0;fontSize=9;exitX=-0.4;exitY=0.8;exitDx=0;exitDy=0;exitPerimeter=0;" edge="1" parent="1" source="a8mu2WrpENQF8_EIgTLG-15">
          <mxGeometry relative="1" as="geometry">
            <mxPoint x="80" y="172" as="targetPoint" />
            <mxPoint x="500" y="236" as="sourcePoint" />
          </mxGeometry>
        </mxCell>
        <mxCell id="a8mu2WrpENQF8_EIgTLG-21" value="&lt;font style=&quot;font-size: 9px;&quot;&gt;/token&lt;/font&gt;" style="html=1;verticalAlign=bottom;endArrow=block;rounded=0;exitX=1.1;exitY=0.525;exitDx=0;exitDy=0;exitPerimeter=0;" edge="1" parent="1" source="a8mu2WrpENQF8_EIgTLG-31">
          <mxGeometry width="80" relative="1" as="geometry">
            <mxPoint x="90" y="240" as="sourcePoint" />
            <mxPoint x="190" y="240" as="targetPoint" />
          </mxGeometry>
        </mxCell>
        <mxCell id="a8mu2WrpENQF8_EIgTLG-28" value="devices" style="html=1;verticalAlign=bottom;endArrow=block;rounded=0;fontSize=9;" edge="1" parent="1" target="a8mu2WrpENQF8_EIgTLG-12">
          <mxGeometry width="80" relative="1" as="geometry">
            <mxPoint x="210" y="290" as="sourcePoint" />
            <mxPoint x="450" y="320" as="targetPoint" />
          </mxGeometry>
        </mxCell>
        <mxCell id="a8mu2WrpENQF8_EIgTLG-34" value="JWKS" style="html=1;verticalAlign=bottom;endArrow=block;rounded=0;fontSize=9;exitX=0.1;exitY=0.7;exitDx=0;exitDy=0;exitPerimeter=0;entryX=0.9;entryY=0.238;entryDx=0;entryDy=0;entryPerimeter=0;" edge="1" parent="1" source="a8mu2WrpENQF8_EIgTLG-26" target="a8mu2WrpENQF8_EIgTLG-33">
          <mxGeometry width="80" relative="1" as="geometry">
            <mxPoint x="370" y="320" as="sourcePoint" />
            <mxPoint x="90" y="298" as="targetPoint" />
          </mxGeometry>
        </mxCell>
        <mxCell id="a8mu2WrpENQF8_EIgTLG-36" value="access_token&amp;nbsp;" style="html=1;verticalAlign=bottom;endArrow=open;dashed=1;endSize=8;rounded=0;fontSize=9;exitX=0;exitY=0.895;exitDx=0;exitDy=0;exitPerimeter=0;entryX=1.2;entryY=0.942;entryDx=0;entryDy=0;entryPerimeter=0;" edge="1" parent="1" source="a8mu2WrpENQF8_EIgTLG-18" target="a8mu2WrpENQF8_EIgTLG-31">
          <mxGeometry relative="1" as="geometry">
            <mxPoint x="450" y="320" as="sourcePoint" />
            <mxPoint x="90" y="400" as="targetPoint" />
          </mxGeometry>
        </mxCell>
        <mxCell id="a8mu2WrpENQF8_EIgTLG-39" value="REST (access_token)" style="html=1;verticalAlign=bottom;endArrow=block;rounded=0;fontSize=9;entryX=0;entryY=0.1;entryDx=0;entryDy=0;entryPerimeter=0;" edge="1" parent="1" target="a8mu2WrpENQF8_EIgTLG-38">
          <mxGeometry width="80" relative="1" as="geometry">
            <mxPoint x="90" y="441" as="sourcePoint" />
            <mxPoint x="310" y="441" as="targetPoint" />
          </mxGeometry>
        </mxCell>
        <mxCell id="a8mu2WrpENQF8_EIgTLG-43" value="JWKS" style="html=1;verticalAlign=bottom;endArrow=block;rounded=0;fontSize=9;exitX=0;exitY=0.45;exitDx=0;exitDy=0;exitPerimeter=0;entryX=1.1;entryY=0.45;entryDx=0;entryDy=0;entryPerimeter=0;" edge="1" target="a8mu2WrpENQF8_EIgTLG-42" parent="1" source="a8mu2WrpENQF8_EIgTLG-40">
          <mxGeometry width="80" relative="1" as="geometry">
            <mxPoint x="316" y="488" as="sourcePoint" />
            <mxPoint x="210" y="488" as="targetPoint" />
          </mxGeometry>
        </mxCell>
        <mxCell id="a8mu2WrpENQF8_EIgTLG-44" value="return" style="html=1;verticalAlign=bottom;endArrow=open;dashed=1;endSize=8;rounded=0;fontSize=9;exitX=0.1;exitY=0.891;exitDx=0;exitDy=0;exitPerimeter=0;entryX=1.3;entryY=0.891;entryDx=0;entryDy=0;entryPerimeter=0;" edge="1" parent="1" source="a8mu2WrpENQF8_EIgTLG-38" target="a8mu2WrpENQF8_EIgTLG-37">
          <mxGeometry relative="1" as="geometry">
            <mxPoint x="210" y="560" as="sourcePoint" />
            <mxPoint x="130" y="560" as="targetPoint" />
          </mxGeometry>
        </mxCell>
      </root>
    </mxGraphModel>
  </diagram>
</mxfile>
